<svg id="SvgjsSvg1001" width="288" height="288" xmlns="http://www.w3.org/2000/svg" version="1.1" xmlns:xlink="http://www.w3.org/1999/xlink" xmlns:svgjs="http://svgjs.com/svgjs"><defs id="SvgjsDefs1002"></defs><g id="SvgjsG1008"><svg xmlns="http://www.w3.org/2000/svg" width="288" height="288" version="1.0" viewBox="0 0 1280 860"><g transform="matrix(.1 0 0 -.1 0 860)" fill="#1b60db" class="color000 svgShape"><path d="M10570 8593c-64-11-119-36-152-71-45-47-98-131-128-203l-22-56-40 43c-54 59-125 104-162 104-60 0-110-51-173-174-31-63-34-71-21-94 15-29 91-80 174-117 32-14 60-27 61-29 2-2-19-34-47-71-56-74-104-162-115-212-3-18-8-33-10-33-2 0-27 12-56 28-74 38-170 38-251 0-125-58-301-203-313-258l-6-30-67 51c-91 68-236 140-384 188-204 66-292 75-332 36-12-13-22-12-73 7-83 31-302 31-415 0-196-54-335-130-459-252l-86-85-78 52c-147 99-255 118-358 64l-56-29-12 36c-25 82-127 241-188 296l-21 19 89 92c94 97 131 155 131 204 0 62-84 122-197 140-55 9-59 8-85-17-15-14-35-46-44-71-23-62-30-67-42-34-17 50-99 170-134 196-40 31-133 57-203 57-58 0-136-33-177-75-32-32-37-51-10-39 9 4 35 9 58 12 30 3 43 0 47-11 4-12-11-22-64-43-78-29-110-64-108-119 0-16 3-23 6-15 19 51 91 90 168 90 42 0 60-5 75-20 25-25 25-26-9-129-30-88-34-111-32-169 1-47 62-108 128-131l51-17-38-51c-88-115-118-210-86-272 22-41 88-96 157-131l61-31 24 22c13 12 31 42 40 65l17 44 27-58c31-66 90-123 165-158 58-28 82-30 112-9 20 14 22 13 28-15 11-49 77-141 150-208 69-63 189-132 230-132 27 0 143-110 149-143 3-12 7-39 10-60 5-36 4-37-22-30-48 14-175 7-232-12-157-50-260-178-260-322 0-28-4-43-12-43-7 0-79-9-160-19-160-21-177-28-238-98-40-45-94-157-115-238-56-214-60-534-10-960l6-50-290-283-290-283-68 19c-51 14-69 24-71 38-7 33-19 36-60 15-23-12-48-21-57-21-8 0-15-4-15-10 0-16-44-51-58-45-7 2-234 175-505 384l-493 379 6 59c8 65-2 154-20 195-8 16-50 53-99 86-47 32-176 120-286 196-110 76-237 160-283 188-55 33-82 55-78 64 3 7-9 35-27 61l-32 48 84 50c322 191 482 537 401 872-20 82-72 201-114 258-40 53-38 56 10 25 59-37 73-29 56 34-6 25-34 92-63 149l-51 105 66 95c134 197 112 262-93 276-53 4-102 11-109 15-29 18-9 52 93 157 139 144 140 180 7 180-85 1-130-9-199-44-60-29-62-30-88-13-35 23-46 55-54 156-5 72-9 85-25 88-25 5-104-81-181-197-33-50-64-91-69-91-9 0-1 325 9 390 10 62-11 13-75-175-34-99-68-190-76-202-31-49-54-20-83 110-9 39-21 72-27 74-15 5-33-84-53-255l-16-145-40 64c-53 86-187 263-242 321-80 82-113 70-113-41 0-125 48-268 116-344 49-54 43-87-16-87-41 0-136 45-236 112-123 81-147 84-110 11 13-27 49-84 80-128 31-44 56-83 56-88 0-18-92-47-230-72-141-26-220-51-235-74-11-19 21-57 68-80 31-15 64-21 113-22 38 0 78-4 88-8 18-7 17-9-10-28-16-11-74-43-130-71-227-114-220-171 20-159 132 6 230 34 281 78 50 45 43 22-16-46-28-33-57-72-65-87-8-16-17-28-20-28-3 0-22 11-42 25-51 35-113 35-141-1-28-35-41-84-48-174-7-101 8-154 61-206 22-22 46-43 53-45 7-2 15-33 19-70l7-67-51 10c-114 23-282-31-357-113-50-55-83-132-87-199-4-53-5-55-33-58-17-1-84-9-150-18-140-18-177-37-236-125-49-74-74-137-99-254-41-190-37-605 9-892l8-52-214-298c-151-211-219-297-231-295-9 1-63 3-119 5-118 2-142-8-120-53 9-18 30-31 77-46 35-11 66-26 68-33 2-6-19-50-46-96-63-105-80-150-66-173 19-29 49-25 93 13 24 19 47 35 52 35 5 0 9-42 9-94 0-101 5-126 24-126 30 0 64 59 103 180 3 8 11-10 19-40 16-60 38-90 66-90 25 0 24 54-2 120-11 28-20 61-20 72 0 19 5 17 44-21 25-25 46-39 50-32 8 13-27 117-65 192-16 32-29 63-29 69 0 11 386 422 402 428 4 2 8-23 8-56 0-132 39-608 71-867 30-237 45-294 86-318 45-26 225-56 381-64 72-3 132-9 132-12 0-3-36-76-80-161-145-280-240-506-240-573 0-25 34-77 51-77 16 0 129-74 129-85 0-15-169-282-262-414-111-159-252-332-384-476-139-151-173-180-242-211-65-29-192-152-217-211-23-53-21-89 14-233 61-258 143-484 188-522 24-19 169-16 211 6 27 14 31 21 26 44-11 51-37 102-60 117l-24 16 0 247c1 136-4 271-10 301-5 29-10 60-10 67 0 7 62 63 138 125 381 313 707 619 924 870l57 65 89-43c156-74 260-91 308-50 25 22 33 52 104 378 80 369 88 401 89 358 2-64 35-214 72-324 32-97 180-419 217-473 11-16 194 48 384 134 68 31 130 58 138 60 11 3 30-25 67-98 256-505 696-1250 868-1472 19-24 21-34 13-52-9-19-3-36 32-101 79-148 143-213 207-213 61 0 191 177 299 405 68 145 149 352 170 435 16 62 17 72 4 80-26 16-53 11-125-24-115-55-401-277-456-354l-32-44-24 38c-130 209-339 711-586 1404l-73 205 68 64c83 77 109 124 111 200 2 50-4 68-57 171-54 107-218 386-350 595-31 49-53 91-48 93 4 1 49-6 100-17 84-17 92-17 92-2 0 16-46 273-136 769l-48 263 45 92c24 51 45 94 46 96 1 2 48-35 105-81 200-164 234-177 293-114 18 19 52 74 76 121 24 47 49 84 55 83 6-2 242-124 523-273 333-176 510-274 506-283-29-75-51-302-30-311 6-2 21 17 35 42 14 26 29 47 33 47 5 0 6-42 2-93-6-81-5-95 10-107 15-13 19-12 36 9 14 17 19 39 19 89l0 66 30-47c33-52 117-137 136-137 19 0 69 62 95 118 13 28 27 51 30 52 4 0 9-27 11-60 3-44 10-66 25-82 46-46 67 7 42 106-6 24-9 55-7 71 3 27 3 26 35-19 72-102 72-29-1 229-5 17 41 54 287 233l292 213 7-88c4-48 14-194 23-323 27-404 67-749 101-867 11-39 22-56 42-67 37-19 154-44 241-52 44-4 71-11 71-19 0-6-20-79-46-161-86-283-85-280-64-307 25-32 116-72 238-104l101-26-16-31c-143-278-419-717-609-968-182-239-382-457-449-487-86-39-196-149-233-234-18-42-15-76 22-230 71-293 150-508 199-542 39-28 209-13 237 20 19 23-9 103-49 143l-36 36 3 231c2 136-1 263-8 310-6 44-12 87-13 96-1 10 90 98 238 230 487 435 918 891 1185 1254 40 55 74 101 75 103 1 1 103-9 226-23 123-14 311-31 418-37 193-12 194-12 208-37 422-772 970-1652 1219-1959 34-42 42-59 38-80-6-29 31-86 110-171 68-72 114-101 160-101 36 0 46 6 96 58 93 96 220 333 318 597 58 154 78 235 60 246-26 17-77 8-144-26-116-58-402-284-459-362-16-23-33-42-37-42-10-1-97 147-155 262-121 242-353 800-554 1335-54 144-99 265-99 267 0 3 24 5 53 6 69 0 145 13 159 27 8 8 0 65-26 204-105 550-304 1575-352 1810l-54 268 75 149 75 150 42-24c24-13 356-188 738-390 382-201 699-370 703-374 5-5 2-35-7-67-8-33-20-95-27-139-10-69-29-115-135-338l-123-257 21-63c27-82 83-136 143-137l40 0 152 273c145 260 153 272 179 269 35-5 44 11 44 75 0 29 8 68 17 88 14 30 22 35 50 35 42 0 57 27 48 86-6 43-1 53 325 638 370 664 334 580 385 906 26 163 32 284 15 295-22 14-111-54-251-192l-146-143-224-466c-123-256-236-479-252-497-30-33-154-217-164-243-3-8-9-14-14-12-5 2-308 233-673 513-544 418-664 513-659 529 5 17 5 79 0 137-1 22-36 53-239 213-76 60-138 114-138 121 0 7-15 32-34 56l-33 44 55 28c126 65 258 183 338 304 106 160 157 385 126 558-6 32-4 43 10 55 11 8 24 43 32 80 10 47 17 64 27 60 8-2 41-4 75-4 50-1 74 6 137 37 119 59 260 209 283 300 5 21 10 26 23 21 47-21 86-15 146 21 33 20 71 46 83 58 47 43 86 144 112 290l12 68 48-73c54-84 124-156 159-165 14-3 36 0 50 8 36 19 86 123 101 207 15 84 6 104-73 153-29 18-54 34-56 35-2 2 13 18 32 37 66 62 71 103 27 232-47 138-40 163 45 173 61 6 127-20 166-66l31-37-7 35c-11 57-36 83-109 110-45 17-65 30-63 40 3 16 55 20 95 6 31-11 28 6-10 43-55 54-149 79-238 64zm-3154-2277c44-21 124-96 124-118 0-4-53-8-117-9-65 0-160-4-210-7-90-7-93-6-87 13 14 46 51 101 83 122 47 32 137 32 207-1zm-5145-44c32-16 68-46 88-72l34-45-204-6c-112-3-206-5-207-3-11 8 58 112 87 131 50 34 132 32 202-5zm3433-2128c22-21 3-62-20-43-16 13-19 59-5 59 5 0 17-7 25-16zm16-288c0-41-15-56-24-23-10 37-7 57 9 57 10 0 15-10 15-34zM12590 7168c-50-33-83-101-76-157 11-84 68-141 143-141 102 0 173 122 129 223-36 85-128 121-196 75z" fill="#1b60db" class="color000 svgShape"></path><path d="M11429 6807c-92-61-92-211 1-274 94-64 210 14 210 142 0 120-118 194-211 132zM4879 6517c-80-53-90-179-20-248 66-66 149-60 207 16 53 70 33 192-39 235-44 27-105 26-148-3zM9600 6278c-50-33-83-101-76-157 11-84 68-141 143-141 102 0 173 122 129 223-36 85-128 121-196 75zM11460 6278c-76-52-99-133-60-213 27-56 70-85 125-85 55 0 98 29 125 85 27 55 24 122-7 164-30 39-82 71-118 71-18 0-47-10-65-22zM10442 5683c-49-24-75-68-80-132-4-67 18-114 69-149 49-34 118-27 162 16l32 31 0-54c0-85 61-150 140-150 79 0 139 69 139 160 0 94-58 155-148 155-37 0-51-6-79-32l-34-33 0 47c-1 57-26 104-73 135-39 27-82 29-128 6zM5575 5299c-64-19-105-79-105-152 0-160 183-221 259-87 67 119-34 275-154 239zM10243 5271c-51-24-83-79-83-146 0-90 59-155 140-155 81 0 140 65 140 155 0 121-97 192-197 146zM5962 4860c-48-30-72-75-72-140 0-163 187-220 261-80 72 134-66 295-189 220zM4363 4050c-95-49-111-194-29-269 18-18 41-26 79-29 46-4 57-1 85 23 45 37 64 79 64 136-1 118-102 188-199 139zM9520 3885c-75-32-111-136-76-219 46-110 201-115 252-8 63 133-51 281-176 227zM11158 3463c-88-55-90-221-4-274 50-30 82-33 129-10 141 68 101 302-51 301-26 0-59-8-74-17zM230 3284c-42-36-60-74-60-130 0-64 32-118 87-145 47-23 79-20 129 10 87 53 83 222-6 274-44 26-112 22-150-9zM4781 3198c-114-59-113-229 1-286 40-20 51-22 86-12 126 33 151 213 41 291-41 30-79 32-128 7zM9750 3039c-58-24-92-79-92-149 0-87 52-150 129-157 113-11 185 108 137 227-27 68-110 106-174 79zM1064 2986c-48-21-77-71-82-135-10-165 175-235 258-99 40 66 19 176-42 221-33 24-95 31-134 13zM49 2320c-109-114-13-309 132-270 67 18 119 111 103 183-18 85-67 127-148 127-44 0-53-4-87-40zM905 2046c-85-38-117-132-75-223 33-73 120-104 190-68 76 39 101 168 46 240-28 37-78 65-113 65-10-1-31-7-48-14z" fill="#1b60db" class="color000 svgShape"></path></g></svg></g></svg>